<?xml version="1.0" encoding="utf-8"?>
<!-- Generator: Adobe Illustrator 20.0.0, SVG Export Plug-In . SVG Version: 6.00 Build 0)  -->
<svg version="1.1" id="Layer_1" xmlns="http://www.w3.org/2000/svg" xmlns:xlink="http://www.w3.org/1999/xlink" x="0px" y="0px"
	 viewBox="0 0 380 380" style="enable-background:new 0 0 380 380;" xml:space="preserve">
<style type="text/css">
	.st0{fill:#FFFFFF;}
</style>
<g>
	<path class="st0" d="M260.3,259.4v22.1c-1.5,22.8-17,25.8-39.1,27.3v52.3h149.6v-52.3c-22.1-1.5-37.6-4.4-39.1-27.3v-22.1H260.3z"
		/>
	<path class="st0" d="M6.8,167.3h365.5c2.2,0,3.7,2.2,3.7,4.4l0,0c0,2.2-1.5,4.4-3.7,4.4H6.8c-2.2,0-3.7-2.2-3.7-4.4l0,0
		C3.1,168.7,4.5,167.3,6.8,167.3"/>
	<path class="st0" d="M6.8,188.6h365.5c2.2,0,3.7,2.2,3.7,4.4l0,0c0,2.2-1.5,4.4-3.7,4.4H6.8c-2.2,0-3.7-2.2-3.7-4.4l0,0
		C3.1,190.8,4.5,188.6,6.8,188.6"/>
	<path class="st0" d="M6.8,210h365.5c2.2,0,3.7,2.2,3.7,4.4l0,0c0,2.2-1.5,4.4-3.7,4.4H6.8c-2.2,0-3.7-2.2-3.7-4.4l0,0
		C3.1,212.2,4.5,210,6.8,210"/>
	<path class="st0" d="M6.8,232.1h365.5c2.2,0,3.7,2.2,3.7,4.4l0,0c0,2.2-1.5,4.4-3.7,4.4H6.8c-2.2,0-3.7-2.2-3.7-4.4l0,0
		C3.1,233.6,4.5,232.1,6.8,232.1"/>
	<path class="st0" d="M6.8,253.5h365.5c2.2,0,3.7,2.2,3.7,4.4l0,0c0,2.2-1.5,4.4-3.7,4.4H6.8c-2.2,0-3.7-2.2-3.7-4.4l0,0
		C3.1,255,4.5,253.5,6.8,253.5"/>
	<path class="st0" d="M9,308.8v52.3h151.1v-52.3c-11.1,0-17.7-0.7-22.1-5.2c-5.2-3.7-4.4-8.8,0.7-17L261,106.8v59.7h71.5V19.1h-87
		L69.4,275.6C51.7,302.9,45.1,309.5,9,308.8"/>
</g>
</svg>
